<svg width="20" height="18" viewBox="0 0 20 18" fill="none" xmlns="http://www.w3.org/2000/svg">
<path d="M10 6.46875C11.5547 6.46875 12.8125 7.60078 12.8125 9C12.8125 10.3992 11.5547 11.5312 10 11.5312C8.44531 11.5312 7.1875 10.3992 7.1875 9C7.1875 7.60078 8.44531 6.46875 10 6.46875ZM7.1875 2.8125C7.1875 4.21172 8.44531 5.34375 10 5.34375C11.5547 5.34375 12.8125 4.21172 12.8125 2.8125C12.8125 1.41328 11.5547 0.28125 10 0.28125C8.44531 0.28125 7.1875 1.41328 7.1875 2.8125ZM7.1875 15.1875C7.1875 16.5867 8.44531 17.7188 10 17.7188C11.5547 17.7188 12.8125 16.5867 12.8125 15.1875C12.8125 13.7883 11.5547 12.6562 10 12.6562C8.44531 12.6562 7.1875 13.7883 7.1875 15.1875Z" fill="black"/>
</svg>
