<svg width="56" height="52" viewBox="0 0 56 52" fill="none" xmlns="http://www.w3.org/2000/svg">
<path d="M39.1417 8.44149L47.9111 17.6042C48.2806 17.9902 48.2806 18.62 47.9111 19.0061L26.6778 41.1916L17.6556 42.2379C16.45 42.3801 15.4292 41.3135 15.5653 40.0539L16.5667 30.6271L37.8 8.44149C38.1694 8.05548 38.7722 8.05548 39.1417 8.44149ZM54.8917 6.11526L50.1472 1.15804C48.6694 -0.386013 46.2681 -0.386013 44.7806 1.15804L41.3389 4.75405C40.9694 5.14007 40.9694 5.76988 41.3389 6.15589L50.1083 15.3186C50.4778 15.7046 51.0806 15.7046 51.45 15.3186L54.8917 11.7226C56.3694 10.1684 56.3694 7.65931 54.8917 6.11526ZM37.3333 35.1576V45.4987H6.22222V12.9924H28.5639C28.875 12.9924 29.1667 12.8603 29.3903 12.6368L33.2792 8.57355C34.0181 7.80152 33.4931 6.49111 32.4528 6.49111H4.66667C2.09028 6.49111 0 8.67513 0 11.3671V47.124C0 49.816 2.09028 52 4.66667 52H38.8889C41.4653 52 43.5556 49.816 43.5556 47.124V31.0944C43.5556 30.0074 42.3014 29.469 41.5625 30.2309L37.6736 34.2942C37.4597 34.5278 37.3333 34.8326 37.3333 35.1576Z" fill="#878585"/>
</svg>

